<?xml version="1.0" encoding="utf-8"?>
<svg xmlns="http://www.w3.org/2000/svg" style="enable-background:new 0 0 512 512;" version="1.1" viewBox="0 0 512 512" x="0px" y="0px">
<g id="_x35_3_x2C__speaker_x2C__sound_x2C__woofer_x2C__subwoofer_x2C__audio">
	<g>
		<g>
			<path d="M407.501,461.984c-40.163,0-268.929,0-303.554,0c0-27.301,0-439.352,0-455.332h303.554&#xD;&#xA;				C407.501,27.187,407.501,337.513,407.501,461.984z" style="fill:#FF7B4A;"/>
			<path d="M255.724,201.794c59.876,0,108.412,48.536,108.412,108.412S315.6,418.619,255.724,418.619&#xD;&#xA;				c-59.865,0-108.412-48.536-108.412-108.412S195.859,201.794,255.724,201.794z" style="fill:#1B345D;"/>
			<path d="M255.724,71.699c35.928,0,65.047,29.12,65.047,65.047s-29.12,65.047-65.047,65.047&#xD;&#xA;				c-35.917,0-65.047-29.12-65.047-65.047S219.807,71.699,255.724,71.699z" style="fill:#35569B;"/>
			<polygon points="374.977,461.984 374.977,505.348 320.771,505.348 309.93,461.984" style="fill:#FF435B;"/>
			<polygon points="201.518,461.984 190.676,505.348 136.47,505.348 136.47,461.984" style="fill:#FF435B;"/>
			<circle cx="255.724" cy="136.747" r="21.682" style="fill:#B5DBFF;"/>
			<circle cx="255.724" cy="310.206" r="54.206" style="fill:#B5DBFF;"/>
			<path d="M407.501,467.404h-32.524c-2.994,0-5.421-2.427-5.421-5.421s2.427-5.421,5.421-5.421h27.103V12.072H109.367v444.49&#xD;&#xA;				h27.103c2.993,0,5.421,2.427,5.421,5.421s-2.427,5.421-5.421,5.421h-32.524c-2.994,0-5.421-2.427-5.421-5.421V6.652&#xD;&#xA;				c0-2.994,2.427-5.421,5.421-5.421h303.554c2.994,0,5.421,2.427,5.421,5.421v455.332&#xD;&#xA;				C412.921,464.977,410.495,467.404,407.501,467.404z"/>
			<path d="M309.93,467.404H201.518c-2.994,0-5.421-2.427-5.421-5.421s2.427-5.421,5.421-5.421H309.93&#xD;&#xA;				c2.994,0,5.421,2.427,5.421,5.421S312.924,467.404,309.93,467.404z"/>
			<path d="M190.677,510.769h-54.206c-2.994,0-5.421-2.427-5.421-5.421v-43.365c0-2.994,2.427-5.421,5.421-5.421h65.047&#xD;&#xA;				c1.669,0,3.245,0.769,4.272,2.085c1.027,1.316,1.391,3.031,0.986,4.651l-10.841,43.365&#xD;&#xA;				C195.332,509.076,193.164,510.769,190.677,510.769z M141.891,499.928h44.553l8.131-32.524h-52.684V499.928z"/>
			<path d="M374.977,510.769h-54.206c-2.487,0-4.655-1.693-5.259-4.106l-10.841-43.365c-0.405-1.62-0.041-3.335,0.986-4.651&#xD;&#xA;				c1.028-1.316,2.603-2.085,4.273-2.085h65.047c2.994,0,5.421,2.427,5.421,5.421v43.365&#xD;&#xA;				C380.398,508.342,377.971,510.769,374.977,510.769z M325.004,499.928h44.553v-32.524h-52.684L325.004,499.928z"/>
			<path d="M255.724,424.039c-62.767,0-113.833-51.065-113.833-113.833s51.065-113.833,113.833-113.833&#xD;&#xA;				c62.767,0,113.832,51.065,113.832,113.833S318.491,424.039,255.724,424.039z M255.724,207.214&#xD;&#xA;				c-56.79,0-102.992,46.202-102.992,102.992s46.202,102.992,102.992,102.992s102.991-46.202,102.991-102.992&#xD;&#xA;				S312.514,207.214,255.724,207.214z"/>
			<path d="M255.724,369.833c-32.878,0-59.627-26.748-59.627-59.627c0-32.878,26.748-59.627,59.627-59.627&#xD;&#xA;				c32.878,0,59.626,26.748,59.626,59.627C315.35,343.085,288.602,369.833,255.724,369.833z M255.724,261.421&#xD;&#xA;				c-26.9,0-48.786,21.885-48.786,48.786s21.885,48.786,48.786,48.786s48.785-21.885,48.785-48.786S282.624,261.421,255.724,261.421&#xD;&#xA;				z"/>
			<path d="M255.724,207.214c-38.856,0-70.468-31.612-70.468-70.468s31.612-70.468,70.468-70.468s70.467,31.612,70.467,70.468&#xD;&#xA;				S294.58,207.214,255.724,207.214z M255.724,77.12c-32.878,0-59.627,26.748-59.627,59.627c0,32.878,26.748,59.627,59.627,59.627&#xD;&#xA;				c32.878,0,59.626-26.748,59.626-59.627C315.35,103.868,288.602,77.12,255.724,77.12z"/>
			<path d="M255.724,163.85c-14.945,0-27.103-12.158-27.103-27.103c0-14.945,12.158-27.103,27.103-27.103&#xD;&#xA;				c14.944,0,27.103,12.158,27.103,27.103C282.827,151.691,270.668,163.85,255.724,163.85z M255.724,120.485&#xD;&#xA;				c-8.967,0-16.262,7.295-16.262,16.262s7.295,16.262,16.262,16.262c8.967,0,16.261-7.295,16.261-16.262&#xD;&#xA;				S264.691,120.485,255.724,120.485z"/>
			<path d="M483.389,271.72c-1.387,0-2.775-0.529-3.833-1.588c-2.117-2.116-2.117-5.549,0-7.665&#xD;&#xA;				c27.477-27.478,27.477-72.185,0-99.663c-2.117-2.116-2.117-5.549,0-7.665c2.115-2.117,5.55-2.117,7.665,0&#xD;&#xA;				c31.704,31.703,31.704,83.29,0,114.993C486.164,271.19,484.776,271.72,483.389,271.72z"/>
			<path d="M450.866,239.196c-1.387,0-2.775-0.529-3.834-1.588c-2.116-2.116-2.116-5.549,0.001-7.666&#xD;&#xA;				c4.623-4.622,7.17-10.769,7.17-17.307s-2.546-12.684-7.17-17.308c-2.117-2.116-2.117-5.549,0-7.665&#xD;&#xA;				c2.115-2.117,5.55-2.117,7.665,0c6.672,6.671,10.346,15.54,10.346,24.973c0,9.434-3.675,18.303-10.346,24.974&#xD;&#xA;				C453.641,238.667,452.253,239.196,450.866,239.196z"/>
			<path d="M28.611,271.72c-1.387,0-2.774-0.529-3.833-1.588c-31.704-31.703-31.704-83.29,0-114.993&#xD;&#xA;				c2.117-2.117,5.549-2.117,7.666,0c2.117,2.116,2.117,5.549,0,7.665c-27.477,27.478-27.477,72.185,0,99.663&#xD;&#xA;				c2.117,2.116,2.117,5.549,0,7.665C31.385,271.19,29.998,271.72,28.611,271.72z"/>
			<path d="M61.134,239.196c-1.387,0-2.774-0.529-3.833-1.588c-6.671-6.67-10.345-15.539-10.345-24.973&#xD;&#xA;				c0-9.433,3.674-18.302,10.345-24.973c2.116-2.117,5.549-2.117,7.666,0c2.117,2.116,2.117,5.549,0,7.665&#xD;&#xA;				c-4.623,4.623-7.17,10.77-7.17,17.308s2.546,12.684,7.17,17.308c2.117,2.116,2.117,5.549,0,7.665&#xD;&#xA;				C63.909,238.667,62.522,239.196,61.134,239.196z"/>
			<path d="M407.501,207.214h-54.206c-2.994,0-5.421-2.427-5.421-5.421s2.427-5.421,5.421-5.421h54.206&#xD;&#xA;				c2.994,0,5.421,2.427,5.421,5.421S410.495,207.214,407.501,207.214z"/>
			<path d="M158.153,207.214h-54.206c-2.994,0-5.421-2.427-5.421-5.421s2.427-5.421,5.421-5.421h54.206&#xD;&#xA;				c2.993,0,5.421,2.427,5.421,5.421S161.146,207.214,158.153,207.214z"/>
		</g>
	</g>
</g>
<g id="Layer_1">
</g>
</svg>