<svg width="36" height="26" viewBox="0 0 36 26" fill="none" xmlns="http://www.w3.org/2000/svg">
<path id="App-Store" opacity="0.45" fill-rule="evenodd" clip-rule="evenodd" d="M19.6049 0C26.6005 0 32.2715 5.67105 32.2715 12.6667C32.2715 19.6622 26.6005 25.3333 19.6049 25.3333H13.6049C6.60928 25.3333 0.938232 19.6622 0.938232 12.6667C0.938232 5.67105 6.60928 0 13.6049 0H19.6049ZM28.4097 1.05005C31.8277 2.43896 35.8762 6.31207 35.8762 12.4268C35.8762 18.5479 32.143 23.0072 28.4097 24.1298C31.0445 21.8618 33.9609 18.5479 33.9609 12.4268C33.9609 6.31207 30.1169 2.99048 28.4097 1.05005ZM10.2881 17.138C9.957 17.0811 9.57994 17.1033 9.19356 17.1926L8.91601 17.6733L8.90298 17.6959C8.83887 17.807 8.56025 18.2896 8.55743 18.2945C8.52824 18.345 8.49911 18.3956 8.47025 18.4463C8.44329 18.4936 8.41661 18.5411 8.39062 18.589C8.33407 18.6934 8.28025 18.8006 8.23988 18.9129C8.19897 19.0269 8.17386 19.1404 8.16766 19.2617C8.1615 19.381 8.17205 19.5045 8.20317 19.62C8.23429 19.7353 8.28035 19.8507 8.34567 19.9509C8.41207 20.0529 8.48612 20.1463 8.5807 20.2224C8.67384 20.2974 8.71155 20.3179 8.7463 20.338C8.78107 20.3581 8.81783 20.3805 8.92931 20.4237C9.04253 20.4676 9.16041 20.485 9.282 20.4915C9.40138 20.498 9.5243 20.4802 9.63977 20.4495C9.75527 20.4187 9.86756 20.3661 9.96776 20.3011C10.0697 20.2351 10.1555 20.1565 10.2336 20.0641C10.3107 19.9731 10.3766 19.8729 10.4387 19.7716L10.5226 19.6313C10.5519 19.5812 10.5809 19.531 10.6099 19.4807C10.6132 19.475 10.9656 18.8645 10.969 18.8587L11.5235 17.8982L11.4104 17.7507C11.0948 17.3818 10.672 17.2039 10.2881 17.138ZM17.857 8.22187C17.527 8.5507 17.2027 9.07286 17.0689 9.60229C16.872 10.3811 16.8952 11.2973 17.4085 12.1866L17.6871 12.6692L18.6178 14.2814L19.9813 16.6432L21.2603 18.8587L21.2734 18.8814C21.3376 18.9927 21.6164 19.4756 21.6193 19.4808C21.6484 19.531 21.6774 19.5812 21.7066 19.6313L21.7905 19.7717C21.8526 19.8729 21.9186 19.973 21.9956 20.0641C22.0738 20.1566 22.1596 20.2351 22.2615 20.3011C22.3617 20.3661 22.474 20.4187 22.5894 20.4495C22.7049 20.4802 22.8278 20.498 22.9472 20.4915C23.0688 20.485 23.1867 20.4676 23.2999 20.4237C23.4114 20.3805 23.4482 20.3581 23.4829 20.338C23.5177 20.3179 23.5554 20.2974 23.6485 20.2224C23.7431 20.1463 23.8171 20.0529 23.8836 19.9509C23.9489 19.8507 23.9949 19.7353 24.0261 19.6199C24.0572 19.5045 24.0677 19.381 24.0616 19.2617C24.0554 19.1404 24.0303 19.0269 23.9894 18.9129C23.949 18.8007 23.8952 18.6935 23.8386 18.589C23.8126 18.5411 23.7859 18.4936 23.759 18.4462L23.6718 18.2945L23.6588 18.2719C23.5947 18.1609 23.3161 17.6782 23.3132 17.6734L22.7186 16.6432L24.1104 16.6428L24.1918 16.6421L24.2732 16.6404C24.3915 16.6372 24.5108 16.6303 24.6277 16.6092C24.7464 16.5877 24.8569 16.5528 24.9647 16.4978C25.0706 16.4437 25.1719 16.373 25.256 16.2887C25.3401 16.2044 25.4166 16.1072 25.4705 16.0009C25.5255 15.8928 25.5692 15.7824 25.5877 15.6628C25.606 15.5451 25.605 15.5023 25.605 15.4624L25.6049 15.4307C25.6043 15.3962 25.6014 15.35 25.5877 15.2617C25.5692 15.1422 25.5255 15.0318 25.4705 14.9237C25.4166 14.8174 25.3401 14.7202 25.256 14.6359C25.1719 14.5516 25.0706 14.4809 24.9647 14.4268C24.8569 14.3717 24.7464 14.3368 24.6277 14.3154C24.5108 14.2943 24.3915 14.2873 24.2732 14.2841C24.2189 14.2827 24.1647 14.2821 24.1104 14.2817L21.3551 14.2814L19.7401 11.4838L17.857 8.22187ZM17.7456 3.66792C17.6262 3.66146 17.5033 3.67925 17.3878 3.70998C17.2723 3.74074 17.16 3.79336 17.0598 3.85834C16.9579 3.92437 16.8721 4.00288 16.7939 4.09529C16.7169 4.18638 16.651 4.28657 16.5888 4.38779C16.5603 4.43427 16.5326 4.48111 16.505 4.52814C16.4755 4.5785 16.4463 4.62899 16.4172 4.67954C16.414 4.68505 16.4108 4.69056 16.4076 4.69604L16.1146 5.20361L15.8216 4.69604L15.8168 4.6878C15.7829 4.62899 15.7537 4.5785 15.7242 4.52814L15.6404 4.38779L15.5434 4.23774L15.4353 4.09529C15.3571 4.00288 15.2714 3.92437 15.1694 3.85834C15.0692 3.79336 14.957 3.74074 14.8415 3.70998C14.726 3.67925 14.6031 3.66146 14.4836 3.66792C14.3621 3.67443 14.2442 3.69188 14.131 3.73573C14.0195 3.77893 13.9828 3.80128 13.9481 3.82136C13.9133 3.84146 13.8755 3.86206 13.7824 3.93701C13.6878 4.01317 13.6137 4.10652 13.5473 4.20858C13.482 4.30877 13.436 4.42414 13.4048 4.5395C13.3737 4.65492 13.3632 4.77847 13.3693 4.89772C13.3756 5.01904 13.4006 5.1326 13.4416 5.24652C13.4819 5.35876 13.5357 5.46597 13.5923 5.57039C13.6183 5.61833 13.645 5.66578 13.6719 5.71318C13.7006 5.76359 13.7296 5.81384 13.7586 5.86407C13.762 5.86987 13.7653 5.87567 13.7687 5.88147L14.746 7.57442L12.4892 11.4838L10.8742 14.2813L8.09958 14.2817C8.04526 14.2821 7.99101 14.2827 7.93671 14.2841C7.81844 14.2873 7.69916 14.2943 7.58217 14.3154C7.46352 14.3368 7.35307 14.3717 7.24529 14.4268C7.13932 14.4809 7.03799 14.5516 6.9539 14.6359C6.86987 14.7202 6.79328 14.8174 6.73937 14.9237C6.68445 15.0318 6.64072 15.1422 6.62217 15.2617C6.60849 15.3501 6.60563 15.3963 6.60506 15.4307V15.494C6.60563 15.5284 6.60849 15.5745 6.62217 15.6628C6.64072 15.7824 6.68445 15.8928 6.73937 16.0009C6.79328 16.1072 6.86987 16.2044 6.9539 16.2887C7.03799 16.373 7.13932 16.4437 7.24529 16.4978C7.35307 16.5528 7.46352 16.5878 7.58217 16.6092C7.69916 16.6303 7.81844 16.6372 7.93671 16.6404C7.99101 16.6419 8.04526 16.6425 8.09958 16.6428L18.6572 16.6432L18.7156 16.4739C18.9309 15.753 18.6681 15.202 18.4128 14.885C18.0754 14.4661 17.5983 14.2813 17.0395 14.2813H13.6114L14.5421 12.6692L16.1146 9.94522L17.4833 7.57442L18.4606 5.88147L18.4656 5.87277C18.4996 5.81384 18.5286 5.76359 18.5573 5.71318C18.5843 5.66578 18.6109 5.61833 18.6369 5.57039C18.6935 5.46597 18.7473 5.35876 18.7876 5.24652C18.8286 5.1326 18.8537 5.01904 18.8599 4.89772C18.8661 4.77847 18.8555 4.65492 18.8244 4.5395C18.7933 4.42414 18.7472 4.30877 18.6819 4.20858C18.6155 4.10652 18.5415 4.01317 18.4469 3.93701C18.3537 3.86206 18.3159 3.84146 18.2812 3.82136C18.2464 3.80128 18.2097 3.77893 18.0983 3.73573C17.985 3.69188 17.8671 3.67443 17.7456 3.66792Z" fill="black"/>
</svg>
